<?xml version="1.0" standalone="no"?>
<!DOCTYPE svg PUBLIC "-//W3C//DTD SVG 20010904//EN"
 "http://www.w3.org/TR/2001/REC-SVG-20010904/DTD/svg10.dtd">
<svg version="1.0" xmlns="http://www.w3.org/2000/svg"
 width="52.000000pt" height="53.000000pt" viewBox="0 0 52.000000 53.000000"
 preserveAspectRatio="xMidYMid meet">

<g transform="translate(0.000000,53.000000) scale(0.100000,-0.100000)"
fill="#C3660A" stroke="none">
<path d="M120 505 c0 -8 -9 -15 -20 -15 -29 0 -76 -26 -84 -45 -3 -9 -6 -77
-6 -150 0 -149 7 -167 70 -183 28 -7 36 -14 41 -41 12 -59 27 -66 160 -70 225
-6 229 -3 229 188 0 157 -7 177 -70 190 -28 5 -35 12 -41 39 -9 44 -25 60 -65
68 -19 3 -34 12 -34 20 0 8 -7 14 -15 14 -8 0 -15 -7 -15 -15 0 -12 -13 -15
-59 -15 -43 0 -60 4 -65 15 -3 8 -10 15 -16 15 -5 0 -10 -7 -10 -15z m-3 -65
c3 -11 10 -20 15 -20 5 0 12 9 15 20 5 17 14 20 60 20 46 0 56 -3 60 -20 3
-11 12 -20 19 -20 8 0 14 9 14 20 0 11 6 20 13 20 25 0 57 -31 57 -55 l0 -24
-137 -3 c-98 -2 -138 -6 -141 -15 -3 -10 29 -13 137 -13 l141 0 0 -89 c0 -123
2 -121 -164 -121 -174 0 -168 -6 -164 166 3 126 4 129 28 141 34 17 41 16 47
-7z m345 -107 c16 -14 18 -33 18 -143 0 -85 -4 -130 -12 -138 -17 -17 -289
-17 -306 0 -7 7 -12 22 -12 35 0 22 2 23 99 23 84 0 102 3 125 21 25 19 26 25
26 113 0 51 3 96 7 99 11 12 36 8 55 -10z"/>
</g>
</svg>
